<svg width="848" height="1020" xmlns="http://www.w3.org/2000/svg" version="1.1"><g transform="translate(0,10)"><g><path class="link" d="M5,219.91833426480707C213.25,219.91833426480707 213.25,224.91833426480707 421.5,224.91833426480707" style="stroke-width: 239.837; fill: none; stroke: rgb(105, 191, 139); stroke-opacity: 0.4;"><title>9610.5833</title></path><path class="link" d="M426.5,222.1108433594859C634.75,222.1108433594859 634.75,117.11084335948597 843,117.11084335948597" style="stroke-width: 234.222; fill: none; stroke: rgb(174, 105, 191); stroke-opacity: 0.4;"><title>9385.5833</title></path><path class="link" d="M5,614.6236147955852C213.25,614.6236147955852 213.25,740.4705010979657 421.5,740.4705010979657" style="stroke-width: 166.376; fill: none; stroke: rgb(191, 105, 105); stroke-opacity: 0.4;"><title>6666.9167</title></path><path class="link" d="M5,768.2350935102593C213.25,768.2350935102593 213.25,516.4242737941661 421.5,516.4242737941661" style="stroke-width: 120.847; fill: none; stroke: rgb(174, 191, 105); stroke-opacity: 0.4;"><title>4842.5</title></path><path class="link" d="M5,475.85349817542044C213.25,475.85349817542044 213.25,400.418749586295 421.5,400.418749586295" style="stroke-width: 111.164; fill: none; stroke: rgb(191, 105, 105); stroke-opacity: 0.4;"><title>4454.5</title></path><path class="link" d="M426.5,380.3233535728738C634.75,380.3233535728738 634.75,359.76553464463456 843,359.76553464463456" style="stroke-width: 82.2033; fill: none; stroke: rgb(174, 105, 191); stroke-opacity: 0.4;"><title>3294</title></path><path class="link" d="M426.5,624.0688074812366C634.75,624.0688074812366 634.75,271.4427772548522 843,271.4427772548522" style="stroke-width: 74.4422; fill: none; stroke: rgb(105, 139, 191); stroke-opacity: 0.4;"><title>2983</title></path><path class="link" d="M5,864.3292683307246C213.25,864.3292683307246 213.25,859.3292683307246 421.5,859.3292683307246" style="stroke-width: 71.3415; fill: none; stroke: rgb(174, 191, 105); stroke-opacity: 0.4;"><title>2858.75</title></path><path class="link" d="M5,375.05404282417686C213.25,375.05404282417686 213.25,622.0650912399191 421.5,622.0650912399191" style="stroke-width: 70.4347; fill: none; stroke: rgb(105, 191, 139); stroke-opacity: 0.4;"><title>2822.4167</title></path><path class="link" d="M426.5,688.7627562428543C634.75,688.7627562428543 634.75,428.34005972427394 843,428.34005972427394" style="stroke-width: 54.9457; fill: none; stroke: rgb(105, 139, 191); stroke-opacity: 0.4;"><title>2201.7500000000005</title></path><path class="link" d="M426.5,437.71470654631725C634.75,437.71470654631725 634.75,482.1026040695526 843,482.1026040695526" style="stroke-width: 32.5794; fill: none; stroke: rgb(174, 105, 191); stroke-opacity: 0.4;"><title>1305.5</title></path><path class="link" d="M426.5,483.59534680794377C634.75,483.59534680794377 634.75,605.3059697491591 843,605.3059697491591" style="stroke-width: 32.4795; fill: none; stroke: rgb(174, 105, 191); stroke-opacity: 0.4;"><title>1301.5</title></path><path class="link" d="M426.5,757.5494028575624C634.75,757.5494028575624 634.75,563.0572575500365 843,563.0572575500365" style="stroke-width: 32.0179; fill: none; stroke: rgb(105, 139, 191); stroke-opacity: 0.4;"><title>1283</title></path><path class="link" d="M426.5,728.8880401485724C634.75,728.8880401485724 634.75,511.0447158690747 843,511.0447158690747" style="stroke-width: 25.3049; fill: none; stroke: rgb(105, 139, 191); stroke-opacity: 0.4;"><title>1014</title></path><path class="link" d="M426.5,808.3691483215106C634.75,808.3691483215106 634.75,701.661404714173 843,701.661404714173" style="stroke-width: 21.1373; fill: none; stroke: rgb(105, 139, 191); stroke-opacity: 0.4;"><title>847</title></path><path class="link" d="M426.5,508.5071494411604C634.75,508.5071494411604 634.75,650.6845152338408 843,650.6845152338408" style="stroke-width: 17.3441; fill: none; stroke: rgb(174, 105, 191); stroke-opacity: 0.4;"><title>695</title></path><path class="link" d="M426.5,790.9127937590914C634.75,790.9127937590914 634.75,666.2442537179986 843,666.2442537179986" style="stroke-width: 13.7754; fill: none; stroke: rgb(105, 139, 191); stroke-opacity: 0.4;"><title>552</title></path><path class="link" d="M426.5,460.6799821518445C634.75,460.6799821518445 634.75,540.3727310350414 843,540.3727310350414" style="stroke-width: 13.3512; fill: none; stroke: rgb(174, 105, 191); stroke-opacity: 0.4;"><title>535</title></path><path class="link" d="M426.5,530.8173438354461C634.75,530.8173438354461 634.75,727.907418752965 843,727.907418752965" style="stroke-width: 11.3547; fill: none; stroke: rgb(174, 105, 191); stroke-opacity: 0.4;"><title>455</title></path><path class="link" d="M426.5,824.3531298758058C634.75,824.3531298758058 634.75,739.0001272633228 843,739.0001272633228" style="stroke-width: 10.8307; fill: none; stroke: rgb(105, 139, 191); stroke-opacity: 0.4;"><title>434</title></path><path class="link" d="M426.5,778.7917113123042C634.75,778.7917113123042 634.75,626.779116345005 843,626.779116345005" style="stroke-width: 10.4667; fill: none; stroke: rgb(105, 139, 191); stroke-opacity: 0.4;"><title>419.4167</title></path><path class="link" d="M426.5,840.7114435508106C634.75,840.7114435508106 634.75,787.5491903361 843,787.5491903361" style="stroke-width: 9.90732; fill: none; stroke: rgb(105, 139, 191); stroke-opacity: 0.4;"><title>397</title></path><path class="link" d="M426.5,541.0678050742075C634.75,541.0678050742075 634.75,758.9885560175877 843,758.9885560175877" style="stroke-width: 9.14618; fill: none; stroke: rgb(174, 105, 191); stroke-opacity: 0.4;"><title>366.5</title></path><path class="link" d="M426.5,521.1595751211412C634.75,521.1595751211412 634.75,687.1123629559308 843,687.1123629559308" style="stroke-width: 7.9608; fill: none; stroke: rgb(174, 105, 191); stroke-opacity: 0.4;"><title>319</title></path><path class="link" d="M426.5,849.6080702863394C634.75,849.6080702863394 634.75,810.03940543044 843,810.03940543044" style="stroke-width: 7.88593; fill: none; stroke: rgb(105, 139, 191); stroke-opacity: 0.4;"><title>316</title></path><path class="link" d="M426.5,856.5956032062498C634.75,856.5956032062498 634.75,831.3941464252945 843,831.3941464252945" style="stroke-width: 6.08914; fill: none; stroke: rgb(105, 139, 191); stroke-opacity: 0.4;"><title>244</title></path><path class="link" d="M426.5,566.179251505136C634.75,566.179251505136 634.75,884.5257926940973 843,884.5257926940973" style="stroke-width: 6.01427; fill: none; stroke: rgb(174, 105, 191); stroke-opacity: 0.4;"><title>241</title></path><path class="link" d="M426.5,832.7631248544125C634.75,832.7631248544125 634.75,766.556303724598 843,766.556303724598" style="stroke-width: 5.98931; fill: none; stroke: rgb(105, 139, 191); stroke-opacity: 0.4;"><title>240</title></path><path class="link" d="M426.5,874.2994337247653C634.75,874.2994337247653 634.75,901.6381029875777 843,901.6381029875777" style="stroke-width: 5.31552; fill: none; stroke: rgb(105, 139, 191); stroke-opacity: 0.4;"><title>213</title></path><path class="link" d="M426.5,862.2844120455125C634.75,862.2844120455125 634.75,850.8761874210799 843,850.8761874210799" style="stroke-width: 5.28848; fill: none; stroke: rgb(105, 139, 191); stroke-opacity: 0.4;"><title>211.9167</title></path><path class="link" d="M426.5,867.5614555519944C634.75,867.5614555519944 634.75,868.885855408741 843,868.885855408741" style="stroke-width: 5.2656; fill: none; stroke: rgb(105, 139, 191); stroke-opacity: 0.4;"><title>211</title></path><path class="link" d="M426.5,554.4626561269289C634.75,554.4626561269289 634.75,826.1659744727186 843,826.1659744727186" style="stroke-width: 4.36721; fill: none; stroke: rgb(174, 105, 191); stroke-opacity: 0.4;"><title>175</title></path><path class="link" d="M426.5,882.7967728648706C634.75,882.7967728648706 634.75,931.3582603886673 843,931.3582603886673" style="stroke-width: 4.0927; fill: none; stroke: rgb(105, 139, 191); stroke-opacity: 0.4;"><title>164</title></path><path class="link" d="M426.5,878.853807860064C634.75,878.853807860064 634.75,917.4152953838608 843,917.4152953838608" style="stroke-width: 3.79323; fill: none; stroke: rgb(105, 139, 191); stroke-opacity: 0.4;"><title>152</title></path><path class="link" d="M426.5,558.5428762426624C634.75,558.5428762426624 634.75,846.3353304186599 843,846.3353304186599" style="stroke-width: 3.79323; fill: none; stroke: rgb(174, 105, 191); stroke-opacity: 0.4;"><title>152</title></path><path class="link" d="M426.5,550.4822579100513C634.75,550.4822579100513 634.75,804.2996462462278 843,804.2996462462278" style="stroke-width: 3.59359; fill: none; stroke: rgb(174, 105, 191); stroke-opacity: 0.4;"><title>144</title></path><path class="link" d="M426.5,573.453772384257C634.75,573.453772384257 634.75,959.0944575499967 843,959.0944575499967" style="stroke-width: 3.24421; fill: none; stroke: rgb(174, 105, 191); stroke-opacity: 0.4;"><title>130</title></path><path class="link" d="M426.5,547.1631797730938C634.75,547.1631797730938 634.75,781.0732446478258 843,781.0732446478258" style="stroke-width: 3.04457; fill: none; stroke: rgb(174, 105, 191); stroke-opacity: 0.4;"><title>122</title></path><path class="link" d="M426.5,561.8058045615135C634.75,561.8058045615135 634.75,864.886740585828 843,864.886740585828" style="stroke-width: 2.73262; fill: none; stroke: rgb(174, 105, 191); stroke-opacity: 0.4;"><title>109.5</title></path><path class="link" d="M426.5,886.165761951256C634.75,886.165761951256 634.75,946.1497115337487 843,946.1497115337487" style="stroke-width: 2.64528; fill: none; stroke: rgb(105, 139, 191); stroke-opacity: 0.4;"><title>106</title></path><path class="link" d="M426.5,889.4349291387856C634.75,889.4349291387856 634.75,973.8359977456503 843,973.8359977456503" style="stroke-width: 2.44564; fill: none; stroke: rgb(105, 139, 191); stroke-opacity: 0.4;"><title>98</title></path><path class="link" d="M426.5,893.7896594763727C634.75,893.7896594763727 634.75,998.7896594763725 843,998.7896594763725" style="stroke-width: 2.42068; fill: none; stroke: rgb(105, 139, 191); stroke-opacity: 0.4;"><title>97</title></path><path class="link" d="M426.5,891.6185331762576C634.75,891.6185331762576 634.75,986.6185331762575 843,986.6185331762575" style="stroke-width: 1.92157; fill: none; stroke: rgb(105, 139, 191); stroke-opacity: 0.4;"><title>77</title></path><path class="link" d="M426.5,870.9179669010229C634.75,870.9179669010229 634.75,888.2566361638353 843,888.2566361638353" style="stroke-width: 1.44742; fill: none; stroke: rgb(105, 139, 191); stroke-opacity: 0.4;"><title>58</title></path><path class="link" d="M426.5,571.1204354985013C634.75,571.1204354985013 634.75,944.1158403445605 843,944.1158403445605" style="stroke-width: 1.42246; fill: none; stroke: rgb(174, 105, 191); stroke-opacity: 0.4;"><title>57</title></path><path class="link" d="M426.5,569.797795338661C634.75,569.797795338661 634.75,914.9072701751071 843,914.9072701751071" style="stroke-width: 1.22282; fill: none; stroke: rgb(174, 105, 191); stroke-opacity: 0.4;"><title>49</title></path><path class="link" d="M426.5,575.6623318964431C634.75,575.6623318964431 634.75,972.0267258288877 843,972.0267258288877" style="stroke-width: 1.17291; fill: none; stroke: rgb(174, 105, 191); stroke-opacity: 0.4;"><title>47</title></path><path class="link" d="M426.5,887.8502564944488C634.75,887.8502564944488 634.75,961.078417789757 843,961.078417789757" style="stroke-width: 1; fill: none; stroke: rgb(105, 139, 191); stroke-opacity: 0.4;"><title>29</title></path><path class="link" d="M426.5,576.5482512487889C634.75,576.5482512487889 634.75,985.3582817032022 843,985.3582817032022" style="stroke-width: 1; fill: none; stroke: rgb(174, 105, 191); stroke-opacity: 0.4;"><title>24</title></path></g><g><g class="node" transform="translate(0,420.27141711873963)"><rect height="277.5402332403295" width="5" style=""><title>1
11,121</title></rect><text x="11" y="138.77011662016474" dy=".35em" text-anchor="start" style="font-size: 11px; font-family: Arial,Helvetica; pointer-events: none;">1</text></g><g class="node" transform="translate(0,707.8116503590691)"><rect height="192.18834964093085" width="5" style=""><title>2
7,701</title></rect><text x="11" y="96.09417482046543" dy=".35em" text-anchor="start" style="font-size: 11px; font-family: Arial,Helvetica; pointer-events: none;">2</text></g><g class="node" transform="translate(0,100)"><rect height="310.27141711873963" width="5" style=""><title>3
12,433</title></rect><text x="11" y="155.13570855936982" dy=".35em" text-anchor="start" style="font-size: 11px; font-family: Arial,Helvetica; pointer-events: none;">3</text></g><g class="node" transform="translate(843,589.0661945790457)"><rect height="42.94629319169186" width="5" style="fill: rgb(102, 102, 102);"><title>
1,721</title></rect><text x="-6" y="21.47314659584593" dy=".35em" text-anchor="end" style="font-size: 11px; font-family: Arial,Helvetica; pointer-events: none;"></text></g><g class="node" transform="translate(843,881.5186579910644)"><rect height="7.461686939475842" width="5" style="fill: rgb(102, 102, 102);"><title>0
299</title></rect><text x="-6" y="3.730843469737921" dy=".35em" text-anchor="end" style="font-size: 11px; font-family: Arial,Helvetica; pointer-events: none;">0</text></g><g class="node" transform="translate(843,5.684341886080802e-14)"><rect height="308.66386779073247" width="5" style="fill: rgb(102, 102, 102);"><title>10
12,369</title></rect><text x="-6" y="154.33193389536623" dy=".35em" text-anchor="end" style="font-size: 11px; font-family: Arial,Helvetica; pointer-events: none;">10</text></g><g class="node" transform="translate(843,823.9823704352466)"><rect height="10.456343905151765" width="5" style="fill: rgb(102, 102, 102);"><title>110
419</title></rect><text x="-6" y="5.228171952575883" dy=".35em" text-anchor="end" style="font-size: 11px; font-family: Arial,Helvetica; pointer-events: none;">110</text></g><g class="node" transform="translate(843,997.5793189527452)"><rect height="2.4206810472547047" width="5" style="fill: rgb(102, 102, 102);"><title>120
97</title></rect><text x="-6" y="1.2103405236273523" dy=".35em" text-anchor="end" style="font-size: 11px; font-family: Arial,Helvetica; pointer-events: none;">120</text></g><g class="node" transform="translate(843,898.9803449305402)"><rect height="5.3155161140747635" width="5" style="fill: rgb(102, 102, 102);"><title>130
213</title></rect><text x="-6" y="2.6577580570373818" dy=".35em" text-anchor="end" style="font-size: 11px; font-family: Arial,Helvetica; pointer-events: none;">130</text></g><g class="node" transform="translate(843,914.295861044615)"><rect height="5.016050417507172" width="5" style="fill: rgb(102, 102, 102);"><title>140
201</title></rect><text x="-6" y="2.508025208753586" dy=".35em" text-anchor="end" style="font-size: 11px; font-family: Arial,Helvetica; pointer-events: none;">140</text></g><g class="node" transform="translate(843,844.4387143403984)"><rect height="9.08171400483996" width="5" style="fill: rgb(102, 102, 102);"><title>150
364</title></rect><text x="-6" y="4.54085700241998" dy=".35em" text-anchor="end" style="font-size: 11px; font-family: Arial,Helvetica; pointer-events: none;">150</text></g><g class="node" transform="translate(843,943.4046093152125)"><rect height="4.067742378376463" width="5" style="fill: rgb(102, 102, 102);"><title>160
163</title></rect><text x="-6" y="2.0338711891882313" dy=".35em" text-anchor="end" style="font-size: 11px; font-family: Arial,Helvetica; pointer-events: none;">160</text></g><g class="node" transform="translate(843,465.8129179500113)"><rect height="57.8842235990442" width="5" style="fill: rgb(102, 102, 102);"><title>20
2,320</title></rect><text x="-6" y="28.9421117995221" dy=".35em" text-anchor="end" style="font-size: 11px; font-family: Arial,Helvetica; pointer-events: none;">20</text></g><g class="node" transform="translate(843,863.5204283452383)"><rect height="7.998229645826112" width="5" style="fill: rgb(102, 102, 102);"><title>210
321</title></rect><text x="-6" y="3.999114822913056" dy=".35em" text-anchor="end" style="font-size: 11px; font-family: Arial,Helvetica; pointer-events: none;">210</text></g><g class="node" transform="translate(843,957.472351693589)"><rect height="3.9679204795205982" width="5" style="fill: rgb(102, 102, 102);"><title>220
159</title></rect><text x="-6" y="1.9839602397602991" dy=".35em" text-anchor="end" style="font-size: 11px; font-family: Arial,Helvetica; pointer-events: none;">220</text></g><g class="node" transform="translate(843,971.4402721731095)"><rect height="3.6185438335250737" width="5" style="fill: rgb(102, 102, 102);"><title>230
145</title></rect><text x="-6" y="1.8092719167625368" dy=".35em" text-anchor="end" style="font-size: 11px; font-family: Arial,Helvetica; pointer-events: none;">230</text></g><g class="node" transform="translate(843,985.0588160066346)"><rect height="2.5205029461105686" width="5" style="fill: rgb(102, 102, 102);"><title>250
101</title></rect><text x="-6" y="1.2602514730552843" dy=".35em" text-anchor="end" style="font-size: 11px; font-family: Arial,Helvetica; pointer-events: none;">250</text></g><g class="node" transform="translate(843,802.5028520668222)"><rect height="11.479518368424372" width="5" style="fill: rgb(102, 102, 102);"><title>260
460</title></rect><text x="-6" y="5.739759184212186" dy=".35em" text-anchor="end" style="font-size: 11px; font-family: Arial,Helvetica; pointer-events: none;">260</text></g><g class="node" transform="translate(843,318.6638677907325)"><rect height="137.1490501592788" width="5" style="fill: rgb(102, 102, 102);"><title>30
5,496</title></rect><text x="-6" y="68.5745250796394" dy=".35em" text-anchor="end" style="font-size: 11px; font-family: Arial,Helvetica; pointer-events: none;">30</text></g><g class="node" transform="translate(843,722.2300482555377)"><rect height="22.185417020715796" width="5" style="fill: rgb(102, 102, 102);"><title>40
889</title></rect><text x="-6" y="11.092708510357898" dy=".35em" text-anchor="end" style="font-size: 11px; font-family: Arial,Helvetica; pointer-events: none;">40</text></g><g class="node" transform="translate(843,642.0124877707376)"><rect height="31.119476968315634" width="5" style="fill: rgb(102, 102, 102);"><title>50
1,247</title></rect><text x="-6" y="15.559738484157817" dy=".35em" text-anchor="end" style="font-size: 11px; font-family: Arial,Helvetica; pointer-events: none;">50</text></g><g class="node" transform="translate(843,929.3119114621221)"><rect height="4.092697853090429" width="5" style="fill: rgb(102, 102, 102);"><title>510
164</title></rect><text x="-6" y="2.0463489265452144" dy=".35em" text-anchor="end" style="font-size: 11px; font-family: Arial,Helvetica; pointer-events: none;">510</text></g><g class="node" transform="translate(843,683.1319647390533)"><rect height="29.098083516484387" width="5" style="fill: rgb(102, 102, 102);"><title>60
1,166</title></rect><text x="-6" y="14.549041758242193" dy=".35em" text-anchor="end" style="font-size: 11px; font-family: Arial,Helvetica; pointer-events: none;">60</text></g><g class="node" transform="translate(843,754.4154652762535)"><rect height="15.135495414020395" width="5" style="fill: rgb(102, 102, 102);"><title>70
607</title></rect><text x="-6" y="7.567747707010198" dy=".35em" text-anchor="end" style="font-size: 11px; font-family: Arial,Helvetica; pointer-events: none;">70</text></g><g class="node" transform="translate(843,533.6971415490555)"><rect height="45.36905302999024" width="5" style="fill: rgb(102, 102, 102);"><title>80
1,818</title></rect><text x="-6" y="22.68452651499512" dy=".35em" text-anchor="end" style="font-size: 11px; font-family: Arial,Helvetica; pointer-events: none;">80</text></g><g class="node" transform="translate(843,779.5509606902739)"><rect height="12.951891376548367" width="5" style="fill: rgb(102, 102, 102);"><title>90
519</title></rect><text x="-6" y="6.475945688274184" dy=".35em" text-anchor="end" style="font-size: 11px; font-family: Arial,Helvetica; pointer-events: none;">90</text></g><g class="node" transform="translate(421.5,105)"><rect height="471.8477169453563" width="5" style=""><title>no
18,908</title></rect><text x="11" y="235.92385847267815" dy=".35em" text-anchor="start" style="font-size: 11px; font-family: Arial,Helvetica; pointer-events: none;">no</text></g><g class="node" transform="translate(421.5,586.8477169453563)"><rect height="308.15228305464365" width="5" style=""><title>yes
12,348</title></rect><text x="11" y="154.07614152732182" dy=".35em" text-anchor="start" style="font-size: 11px; font-family: Arial,Helvetica; pointer-events: none;">yes</text></g></g></g></svg>