<svg width="2000" height="600" xmlns="http://www.w3.org/2000/svg" version="1.1"><g transform="translate(50,0)"><text x="-50" y="-7" style="font-size: 10px; font-family: Arial,Helvetica;">null</text><g class="y axis" style="font-size: 10px; font-family: Arial,Helvetica;" transform="translate(0,0)"><g class="tick" style="opacity: 1;" transform="translate(0,550)"><line x2="-6" y2="0" style="shape-rendering: crispedges; fill: none; stroke: rgb(204, 204, 204);"></line><text dy=".32em" style="text-anchor: end;" x="-9" y="0">0</text></g><g class="tick" style="opacity: 1;" transform="translate(0,538.3550441185033)"><line x2="-6" y2="0" style="shape-rendering: crispedges; fill: none; stroke: rgb(204, 204, 204);"></line><text dy=".32em" style="text-anchor: end;" x="-9" y="0">20,000</text></g><g class="tick" style="opacity: 1;" transform="translate(0,526.7100882370066)"><line x2="-6" y2="0" style="shape-rendering: crispedges; fill: none; stroke: rgb(204, 204, 204);"></line><text dy=".32em" style="text-anchor: end;" x="-9" y="0">40,000</text></g><g class="tick" style="opacity: 1;" transform="translate(0,515.06513235551)"><line x2="-6" y2="0" style="shape-rendering: crispedges; fill: none; stroke: rgb(204, 204, 204);"></line><text dy=".32em" style="text-anchor: end;" x="-9" y="0">60,000</text></g><g class="tick" style="opacity: 1;" transform="translate(0,503.42017647401326)"><line x2="-6" y2="0" style="shape-rendering: crispedges; fill: none; stroke: rgb(204, 204, 204);"></line><text dy=".32em" style="text-anchor: end;" x="-9" y="0">80,000</text></g><g class="tick" style="opacity: 1;" transform="translate(0,491.7752205925165)"><line x2="-6" y2="0" style="shape-rendering: crispedges; fill: none; stroke: rgb(204, 204, 204);"></line><text dy=".32em" style="text-anchor: end;" x="-9" y="0">100,000</text></g><g class="tick" style="opacity: 1;" transform="translate(0,480.13026471101983)"><line x2="-6" y2="0" style="shape-rendering: crispedges; fill: none; stroke: rgb(204, 204, 204);"></line><text dy=".32em" style="text-anchor: end;" x="-9" y="0">120,000</text></g><g class="tick" style="opacity: 1;" transform="translate(0,468.48530882952315)"><line x2="-6" y2="0" style="shape-rendering: crispedges; fill: none; stroke: rgb(204, 204, 204);"></line><text dy=".32em" style="text-anchor: end;" x="-9" y="0">140,000</text></g><g class="tick" style="opacity: 1;" transform="translate(0,456.8403529480264)"><line x2="-6" y2="0" style="shape-rendering: crispedges; fill: none; stroke: rgb(204, 204, 204);"></line><text dy=".32em" style="text-anchor: end;" x="-9" y="0">160,000</text></g><g class="tick" style="opacity: 1;" transform="translate(0,445.1953970665297)"><line x2="-6" y2="0" style="shape-rendering: crispedges; fill: none; stroke: rgb(204, 204, 204);"></line><text dy=".32em" style="text-anchor: end;" x="-9" y="0">180,000</text></g><g class="tick" style="opacity: 1;" transform="translate(0,433.5504411850331)"><line x2="-6" y2="0" style="shape-rendering: crispedges; fill: none; stroke: rgb(204, 204, 204);"></line><text dy=".32em" style="text-anchor: end;" x="-9" y="0">200,000</text></g><g class="tick" style="opacity: 1;" transform="translate(0,421.90548530353635)"><line x2="-6" y2="0" style="shape-rendering: crispedges; fill: none; stroke: rgb(204, 204, 204);"></line><text dy=".32em" style="text-anchor: end;" x="-9" y="0">220,000</text></g><g class="tick" style="opacity: 1;" transform="translate(0,410.26052942203967)"><line x2="-6" y2="0" style="shape-rendering: crispedges; fill: none; stroke: rgb(204, 204, 204);"></line><text dy=".32em" style="text-anchor: end;" x="-9" y="0">240,000</text></g><g class="tick" style="opacity: 1;" transform="translate(0,398.615573540543)"><line x2="-6" y2="0" style="shape-rendering: crispedges; fill: none; stroke: rgb(204, 204, 204);"></line><text dy=".32em" style="text-anchor: end;" x="-9" y="0">260,000</text></g><g class="tick" style="opacity: 1;" transform="translate(0,386.97061765904624)"><line x2="-6" y2="0" style="shape-rendering: crispedges; fill: none; stroke: rgb(204, 204, 204);"></line><text dy=".32em" style="text-anchor: end;" x="-9" y="0">280,000</text></g><g class="tick" style="opacity: 1;" transform="translate(0,375.3256617775496)"><line x2="-6" y2="0" style="shape-rendering: crispedges; fill: none; stroke: rgb(204, 204, 204);"></line><text dy=".32em" style="text-anchor: end;" x="-9" y="0">300,000</text></g><g class="tick" style="opacity: 1;" transform="translate(0,363.68070589605287)"><line x2="-6" y2="0" style="shape-rendering: crispedges; fill: none; stroke: rgb(204, 204, 204);"></line><text dy=".32em" style="text-anchor: end;" x="-9" y="0">320,000</text></g><g class="tick" style="opacity: 1;" transform="translate(0,352.0357500145562)"><line x2="-6" y2="0" style="shape-rendering: crispedges; fill: none; stroke: rgb(204, 204, 204);"></line><text dy=".32em" style="text-anchor: end;" x="-9" y="0">340,000</text></g><g class="tick" style="opacity: 1;" transform="translate(0,340.3907941330595)"><line x2="-6" y2="0" style="shape-rendering: crispedges; fill: none; stroke: rgb(204, 204, 204);"></line><text dy=".32em" style="text-anchor: end;" x="-9" y="0">360,000</text></g><g class="tick" style="opacity: 1;" transform="translate(0,328.7458382515628)"><line x2="-6" y2="0" style="shape-rendering: crispedges; fill: none; stroke: rgb(204, 204, 204);"></line><text dy=".32em" style="text-anchor: end;" x="-9" y="0">380,000</text></g><g class="tick" style="opacity: 1;" transform="translate(0,317.10088237006613)"><line x2="-6" y2="0" style="shape-rendering: crispedges; fill: none; stroke: rgb(204, 204, 204);"></line><text dy=".32em" style="text-anchor: end;" x="-9" y="0">400,000</text></g><g class="tick" style="opacity: 1;" transform="translate(0,305.4559264885694)"><line x2="-6" y2="0" style="shape-rendering: crispedges; fill: none; stroke: rgb(204, 204, 204);"></line><text dy=".32em" style="text-anchor: end;" x="-9" y="0">420,000</text></g><g class="tick" style="opacity: 1;" transform="translate(0,293.81097060707276)"><line x2="-6" y2="0" style="shape-rendering: crispedges; fill: none; stroke: rgb(204, 204, 204);"></line><text dy=".32em" style="text-anchor: end;" x="-9" y="0">440,000</text></g><g class="tick" style="opacity: 1;" transform="translate(0,282.166014725576)"><line x2="-6" y2="0" style="shape-rendering: crispedges; fill: none; stroke: rgb(204, 204, 204);"></line><text dy=".32em" style="text-anchor: end;" x="-9" y="0">460,000</text></g><g class="tick" style="opacity: 1;" transform="translate(0,270.52105884407933)"><line x2="-6" y2="0" style="shape-rendering: crispedges; fill: none; stroke: rgb(204, 204, 204);"></line><text dy=".32em" style="text-anchor: end;" x="-9" y="0">480,000</text></g><g class="tick" style="opacity: 1;" transform="translate(0,258.87610296258265)"><line x2="-6" y2="0" style="shape-rendering: crispedges; fill: none; stroke: rgb(204, 204, 204);"></line><text dy=".32em" style="text-anchor: end;" x="-9" y="0">500,000</text></g><g class="tick" style="opacity: 1;" transform="translate(0,247.23114708108594)"><line x2="-6" y2="0" style="shape-rendering: crispedges; fill: none; stroke: rgb(204, 204, 204);"></line><text dy=".32em" style="text-anchor: end;" x="-9" y="0">520,000</text></g><g class="tick" style="opacity: 1;" transform="translate(0,235.58619119958928)"><line x2="-6" y2="0" style="shape-rendering: crispedges; fill: none; stroke: rgb(204, 204, 204);"></line><text dy=".32em" style="text-anchor: end;" x="-9" y="0">540,000</text></g><g class="tick" style="opacity: 1;" transform="translate(0,223.94123531809257)"><line x2="-6" y2="0" style="shape-rendering: crispedges; fill: none; stroke: rgb(204, 204, 204);"></line><text dy=".32em" style="text-anchor: end;" x="-9" y="0">560,000</text></g><g class="tick" style="opacity: 1;" transform="translate(0,212.29627943659588)"><line x2="-6" y2="0" style="shape-rendering: crispedges; fill: none; stroke: rgb(204, 204, 204);"></line><text dy=".32em" style="text-anchor: end;" x="-9" y="0">580,000</text></g><g class="tick" style="opacity: 1;" transform="translate(0,200.65132355509917)"><line x2="-6" y2="0" style="shape-rendering: crispedges; fill: none; stroke: rgb(204, 204, 204);"></line><text dy=".32em" style="text-anchor: end;" x="-9" y="0">600,000</text></g><g class="tick" style="opacity: 1;" transform="translate(0,189.00636767360245)"><line x2="-6" y2="0" style="shape-rendering: crispedges; fill: none; stroke: rgb(204, 204, 204);"></line><text dy=".32em" style="text-anchor: end;" x="-9" y="0">620,000</text></g><g class="tick" style="opacity: 1;" transform="translate(0,177.36141179210574)"><line x2="-6" y2="0" style="shape-rendering: crispedges; fill: none; stroke: rgb(204, 204, 204);"></line><text dy=".32em" style="text-anchor: end;" x="-9" y="0">640,000</text></g><g class="tick" style="opacity: 1;" transform="translate(0,165.7164559106091)"><line x2="-6" y2="0" style="shape-rendering: crispedges; fill: none; stroke: rgb(204, 204, 204);"></line><text dy=".32em" style="text-anchor: end;" x="-9" y="0">660,000</text></g><g class="tick" style="opacity: 1;" transform="translate(0,154.0715000291124)"><line x2="-6" y2="0" style="shape-rendering: crispedges; fill: none; stroke: rgb(204, 204, 204);"></line><text dy=".32em" style="text-anchor: end;" x="-9" y="0">680,000</text></g><g class="tick" style="opacity: 1;" transform="translate(0,142.42654414761572)"><line x2="-6" y2="0" style="shape-rendering: crispedges; fill: none; stroke: rgb(204, 204, 204);"></line><text dy=".32em" style="text-anchor: end;" x="-9" y="0">700,000</text></g><g class="tick" style="opacity: 1;" transform="translate(0,130.781588266119)"><line x2="-6" y2="0" style="shape-rendering: crispedges; fill: none; stroke: rgb(204, 204, 204);"></line><text dy=".32em" style="text-anchor: end;" x="-9" y="0">720,000</text></g><g class="tick" style="opacity: 1;" transform="translate(0,119.13663238462229)"><line x2="-6" y2="0" style="shape-rendering: crispedges; fill: none; stroke: rgb(204, 204, 204);"></line><text dy=".32em" style="text-anchor: end;" x="-9" y="0">740,000</text></g><g class="tick" style="opacity: 1;" transform="translate(0,107.49167650312559)"><line x2="-6" y2="0" style="shape-rendering: crispedges; fill: none; stroke: rgb(204, 204, 204);"></line><text dy=".32em" style="text-anchor: end;" x="-9" y="0">760,000</text></g><g class="tick" style="opacity: 1;" transform="translate(0,95.84672062162895)"><line x2="-6" y2="0" style="shape-rendering: crispedges; fill: none; stroke: rgb(204, 204, 204);"></line><text dy=".32em" style="text-anchor: end;" x="-9" y="0">780,000</text></g><g class="tick" style="opacity: 1;" transform="translate(0,84.20176474013223)"><line x2="-6" y2="0" style="shape-rendering: crispedges; fill: none; stroke: rgb(204, 204, 204);"></line><text dy=".32em" style="text-anchor: end;" x="-9" y="0">800,000</text></g><g class="tick" style="opacity: 1;" transform="translate(0,72.55680885863553)"><line x2="-6" y2="0" style="shape-rendering: crispedges; fill: none; stroke: rgb(204, 204, 204);"></line><text dy=".32em" style="text-anchor: end;" x="-9" y="0">820,000</text></g><g class="tick" style="opacity: 1;" transform="translate(0,60.91185297713883)"><line x2="-6" y2="0" style="shape-rendering: crispedges; fill: none; stroke: rgb(204, 204, 204);"></line><text dy=".32em" style="text-anchor: end;" x="-9" y="0">840,000</text></g><g class="tick" style="opacity: 1;" transform="translate(0,49.26689709564213)"><line x2="-6" y2="0" style="shape-rendering: crispedges; fill: none; stroke: rgb(204, 204, 204);"></line><text dy=".32em" style="text-anchor: end;" x="-9" y="0">860,000</text></g><g class="tick" style="opacity: 1;" transform="translate(0,37.62194121414542)"><line x2="-6" y2="0" style="shape-rendering: crispedges; fill: none; stroke: rgb(204, 204, 204);"></line><text dy=".32em" style="text-anchor: end;" x="-9" y="0">880,000</text></g><g class="tick" style="opacity: 1;" transform="translate(0,25.976985332648777)"><line x2="-6" y2="0" style="shape-rendering: crispedges; fill: none; stroke: rgb(204, 204, 204);"></line><text dy=".32em" style="text-anchor: end;" x="-9" y="0">900,000</text></g><g class="tick" style="opacity: 1;" transform="translate(0,14.332029451152072)"><line x2="-6" y2="0" style="shape-rendering: crispedges; fill: none; stroke: rgb(204, 204, 204);"></line><text dy=".32em" style="text-anchor: end;" x="-9" y="0">920,000</text></g><g class="tick" style="opacity: 1;" transform="translate(0,2.687073569655368)"><line x2="-6" y2="0" style="shape-rendering: crispedges; fill: none; stroke: rgb(204, 204, 204);"></line><text dy=".32em" style="text-anchor: end;" x="-9" y="0">940,000</text></g><path class="domain" d="M-6,0H0V550H-6" style="shape-rendering: crispedges; fill: none; stroke: rgb(204, 204, 204);"></path></g><rect transform="translate(0,0)" class="bar" x="6" width="49" y="523.9362597460341" height="26.063740253965875" style="fill: rgb(191, 105, 105);"></rect><rect transform="translate(0,0)" class="bar" x="60" width="49" y="516.3647094318849" height="33.635290568115124" style="fill: rgb(191, 119, 105);"></rect><rect transform="translate(0,0)" class="bar" x="114" width="49" y="546.1915171789565" height="3.808482821043526" style="fill: rgb(191, 134, 105);"></rect><rect transform="translate(0,0)" class="bar" x="168" width="49" y="547.8485944008935" height="2.1514055991065106" style="fill: rgb(191, 148, 105);"></rect><rect transform="translate(0,0)" class="bar" x="222" width="49" y="476.0178485414693" height="73.98215145853072" style="fill: rgb(191, 162, 105);"></rect><rect transform="translate(0,0)" class="bar" x="276" width="49" y="531.2533677741725" height="18.74663222582751" style="fill: rgb(191, 176, 105);"></rect><rect transform="translate(0,0)" class="bar" x="330" width="49" y="0" height="550" style="fill: rgb(191, 191, 105);"></rect><rect transform="translate(0,0)" class="bar" x="384" width="49" y="529.2661560529951" height="20.733843947004857" style="fill: rgb(176, 191, 105);"></rect><rect transform="translate(0,0)" class="bar" x="438" width="49" y="540.9029604653748" height="9.097039534625196" style="fill: rgb(162, 191, 105);"></rect><rect transform="translate(0,0)" class="bar" x="492" width="49" y="518.5056345706981" height="31.494365429301865" style="fill: rgb(148, 191, 105);"></rect><rect transform="translate(0,0)" class="bar" x="546" width="49" y="532.0225171101454" height="17.977482889854628" style="fill: rgb(134, 191, 105);"></rect><rect transform="translate(0,0)" class="bar" x="600" width="49" y="545.2657431863774" height="4.734256813622551" style="fill: rgb(119, 191, 105);"></rect><rect transform="translate(0,0)" class="bar" x="654" width="49" y="342.53404826304893" height="207.46595173695107" style="fill: rgb(105, 191, 105);"></rect><rect transform="translate(0,0)" class="bar" x="708" width="49" y="476.0096970723522" height="73.9903029276478" style="fill: rgb(105, 191, 119);"></rect><rect transform="translate(0,0)" class="bar" x="762" width="49" y="523.7394599916369" height="26.260540008363137" style="fill: rgb(105, 191, 134);"></rect><rect transform="translate(0,0)" class="bar" x="816" width="49" y="524.9872170143392" height="25.012782985660806" style="fill: rgb(105, 191, 148);"></rect><rect transform="translate(0,0)" class="bar" x="870" width="49" y="517.7458011994305" height="32.2541988005695" style="fill: rgb(105, 191, 162);"></rect><rect transform="translate(0,0)" class="bar" x="924" width="49" y="522.3659374454143" height="27.63406255458574" style="fill: rgb(105, 191, 176);"></rect><rect transform="translate(0,0)" class="bar" x="978" width="49" y="535.8758330113327" height="14.124166988667298" style="fill: rgb(105, 191, 191);"></rect><rect transform="translate(0,0)" class="bar" x="1032" width="49" y="490.54667774701863" height="59.453322252981366" style="fill: rgb(105, 176, 191);"></rect><rect transform="translate(0,0)" class="bar" x="1086" width="49" y="541.9574112204443" height="8.042588779555672" style="fill: rgb(105, 162, 191);"></rect><rect transform="translate(0,0)" class="bar" x="1140" width="49" y="539.0677154184509" height="10.932284581549084" style="fill: rgb(105, 148, 191);"></rect><rect transform="translate(0,0)" class="bar" x="1194" width="49" y="507.82138754942486" height="42.178612450575145" style="fill: rgb(105, 134, 191);"></rect><rect transform="translate(0,0)" class="bar" x="1248" width="49" y="541.2377529469678" height="8.762247053032183" style="fill: rgb(105, 119, 191);"></rect><rect transform="translate(0,0)" class="bar" x="1302" width="49" y="545.0334263165416" height="4.966573683458364" style="fill: rgb(105, 105, 191);"></rect><rect transform="translate(0,0)" class="bar" x="1356" width="49" y="527.7243638942849" height="22.27563610571508" style="fill: rgb(119, 105, 191);"></rect><rect transform="translate(0,0)" class="bar" x="1410" width="49" y="522.9685639122816" height="27.03143608771836" style="fill: rgb(134, 105, 191);"></rect><rect transform="translate(0,0)" class="bar" x="1464" width="49" y="544.1402582004308" height="5.8597417995691785" style="fill: rgb(148, 105, 191);"></rect><rect transform="translate(0,0)" class="bar" x="1518" width="49" y="544.6101321702492" height="5.389867829750756" style="fill: rgb(162, 105, 191);"></rect><rect transform="translate(0,0)" class="bar" x="1572" width="49" y="546.1740497451343" height="3.8259502548656883" style="fill: rgb(176, 105, 191);"></rect><rect transform="translate(0,0)" class="bar" x="1626" width="49" y="520.5353503808429" height="29.464649619157058" style="fill: rgb(191, 105, 191);"></rect><rect transform="translate(0,0)" class="bar" x="1680" width="49" y="508.2272142618951" height="41.772785738104915" style="fill: rgb(191, 105, 176);"></rect><rect transform="translate(0,0)" class="bar" x="1734" width="49" y="548.3027476802719" height="1.6972523197281362" style="fill: rgb(191, 105, 162);"></rect><rect transform="translate(0,0)" class="bar" x="1788" width="49" y="537.9963794773532" height="12.00362052264677" style="fill: rgb(191, 105, 148);"></rect><rect transform="translate(0,0)" class="bar" x="1842" width="49" y="428.2944903479195" height="121.70550965208048" style="fill: rgb(191, 105, 134);"></rect><rect transform="translate(0,0)" class="bar" x="1896" width="49" y="544.2741751930681" height="5.7258248069318824" style="fill: rgb(191, 105, 119);"></rect></g><g class="x axis" style="font-size: 10px; font-family: Arial,Helvetica;" transform="translate(50,550)"><g class="tick" style="opacity: 1;" transform="translate(30.5,0)"><line y2="6" x2="0" style="shape-rendering: crispedges; fill: none; stroke: rgb(204, 204, 204);"></line><text dy=".71em" style="text-anchor: middle;" y="9" x="0">Argentina</text></g><g class="tick" style="opacity: 1;" transform="translate(84.5,0)"><line y2="6" x2="0" style="shape-rendering: crispedges; fill: none; stroke: rgb(204, 204, 204);"></line><text dy=".71em" style="text-anchor: middle;" y="9" x="0">Australia</text></g><g class="tick" style="opacity: 1;" transform="translate(138.5,0)"><line y2="6" x2="0" style="shape-rendering: crispedges; fill: none; stroke: rgb(204, 204, 204);"></line><text dy=".71em" style="text-anchor: middle;" y="9" x="0">Austria</text></g><g class="tick" style="opacity: 1;" transform="translate(192.5,0)"><line y2="6" x2="0" style="shape-rendering: crispedges; fill: none; stroke: rgb(204, 204, 204);"></line><text dy=".71em" style="text-anchor: middle;" y="9" x="0">Belgium</text></g><g class="tick" style="opacity: 1;" transform="translate(246.5,0)"><line y2="6" x2="0" style="shape-rendering: crispedges; fill: none; stroke: rgb(204, 204, 204);"></line><text dy=".71em" style="text-anchor: middle;" y="9" x="0">Brazil</text></g><g class="tick" style="opacity: 1;" transform="translate(300.5,0)"><line y2="6" x2="0" style="shape-rendering: crispedges; fill: none; stroke: rgb(204, 204, 204);"></line><text dy=".71em" style="text-anchor: middle;" y="9" x="0">Canada</text></g><g class="tick" style="opacity: 1;" transform="translate(354.5,0)"><line y2="6" x2="0" style="shape-rendering: crispedges; fill: none; stroke: rgb(204, 204, 204);"></line><text dy=".71em" style="text-anchor: middle;" y="9" x="0">China</text></g><g class="tick" style="opacity: 1;" transform="translate(408.5,0)"><line y2="6" x2="0" style="shape-rendering: crispedges; fill: none; stroke: rgb(204, 204, 204);"></line><text dy=".71em" style="text-anchor: middle;" y="9" x="0">Colombia</text></g><g class="tick" style="opacity: 1;" transform="translate(462.5,0)"><line y2="6" x2="0" style="shape-rendering: crispedges; fill: none; stroke: rgb(204, 204, 204);"></line><text dy=".71em" style="text-anchor: middle;" y="9" x="0">Denmark</text></g><g class="tick" style="opacity: 1;" transform="translate(516.5,0)"><line y2="6" x2="0" style="shape-rendering: crispedges; fill: none; stroke: rgb(204, 204, 204);"></line><text dy=".71em" style="text-anchor: middle;" y="9" x="0">France</text></g><g class="tick" style="opacity: 1;" transform="translate(570.5,0)"><line y2="6" x2="0" style="shape-rendering: crispedges; fill: none; stroke: rgb(204, 204, 204);"></line><text dy=".71em" style="text-anchor: middle;" y="9" x="0">Germany</text></g><g class="tick" style="opacity: 1;" transform="translate(624.5,0)"><line y2="6" x2="0" style="shape-rendering: crispedges; fill: none; stroke: rgb(204, 204, 204);"></line><text dy=".71em" style="text-anchor: middle;" y="9" x="0">Greece</text></g><g class="tick" style="opacity: 1;" transform="translate(678.5,0)"><line y2="6" x2="0" style="shape-rendering: crispedges; fill: none; stroke: rgb(204, 204, 204);"></line><text dy=".71em" style="text-anchor: middle;" y="9" x="0">India</text></g><g class="tick" style="opacity: 1;" transform="translate(732.5,0)"><line y2="6" x2="0" style="shape-rendering: crispedges; fill: none; stroke: rgb(204, 204, 204);"></line><text dy=".71em" style="text-anchor: middle;" y="9" x="0">Indonesia</text></g><g class="tick" style="opacity: 1;" transform="translate(786.5,0)"><line y2="6" x2="0" style="shape-rendering: crispedges; fill: none; stroke: rgb(204, 204, 204);"></line><text dy=".71em" style="text-anchor: middle;" y="9" x="0">Iran</text></g><g class="tick" style="opacity: 1;" transform="translate(840.5,0)"><line y2="6" x2="0" style="shape-rendering: crispedges; fill: none; stroke: rgb(204, 204, 204);"></line><text dy=".71em" style="text-anchor: middle;" y="9" x="0">Italy</text></g><g class="tick" style="opacity: 1;" transform="translate(894.5,0)"><line y2="6" x2="0" style="shape-rendering: crispedges; fill: none; stroke: rgb(204, 204, 204);"></line><text dy=".71em" style="text-anchor: middle;" y="9" x="0">Japan</text></g><g class="tick" style="opacity: 1;" transform="translate(948.5,0)"><line y2="6" x2="0" style="shape-rendering: crispedges; fill: none; stroke: rgb(204, 204, 204);"></line><text dy=".71em" style="text-anchor: middle;" y="9" x="0">Mexico</text></g><g class="tick" style="opacity: 1;" transform="translate(1002.5,0)"><line y2="6" x2="0" style="shape-rendering: crispedges; fill: none; stroke: rgb(204, 204, 204);"></line><text dy=".71em" style="text-anchor: middle;" y="9" x="0">Netherlands</text></g><g class="tick" style="opacity: 1;" transform="translate(1056.5,0)"><line y2="6" x2="0" style="shape-rendering: crispedges; fill: none; stroke: rgb(204, 204, 204);"></line><text dy=".71em" style="text-anchor: middle;" y="9" x="0">Nigeria</text></g><g class="tick" style="opacity: 1;" transform="translate(1110.5,0)"><line y2="6" x2="0" style="shape-rendering: crispedges; fill: none; stroke: rgb(204, 204, 204);"></line><text dy=".71em" style="text-anchor: middle;" y="9" x="0">Norway</text></g><g class="tick" style="opacity: 1;" transform="translate(1164.5,0)"><line y2="6" x2="0" style="shape-rendering: crispedges; fill: none; stroke: rgb(204, 204, 204);"></line><text dy=".71em" style="text-anchor: middle;" y="9" x="0">Poland</text></g><g class="tick" style="opacity: 1;" transform="translate(1218.5,0)"><line y2="6" x2="0" style="shape-rendering: crispedges; fill: none; stroke: rgb(204, 204, 204);"></line><text dy=".71em" style="text-anchor: middle;" y="9" x="0">Russia</text></g><g class="tick" style="opacity: 1;" transform="translate(1272.5,0)"><line y2="6" x2="0" style="shape-rendering: crispedges; fill: none; stroke: rgb(204, 204, 204);"></line><text dy=".71em" style="text-anchor: middle;" y="9" x="0">Saudi Arabia</text></g><g class="tick" style="opacity: 1;" transform="translate(1326.5,0)"><line y2="6" x2="0" style="shape-rendering: crispedges; fill: none; stroke: rgb(204, 204, 204);"></line><text dy=".71em" style="text-anchor: middle;" y="9" x="0">South Africa</text></g><g class="tick" style="opacity: 1;" transform="translate(1380.5,0)"><line y2="6" x2="0" style="shape-rendering: crispedges; fill: none; stroke: rgb(204, 204, 204);"></line><text dy=".71em" style="text-anchor: middle;" y="9" x="0">South Korea</text></g><g class="tick" style="opacity: 1;" transform="translate(1434.5,0)"><line y2="6" x2="0" style="shape-rendering: crispedges; fill: none; stroke: rgb(204, 204, 204);"></line><text dy=".71em" style="text-anchor: middle;" y="9" x="0">Spain</text></g><g class="tick" style="opacity: 1;" transform="translate(1488.5,0)"><line y2="6" x2="0" style="shape-rendering: crispedges; fill: none; stroke: rgb(204, 204, 204);"></line><text dy=".71em" style="text-anchor: middle;" y="9" x="0">Sweden</text></g><g class="tick" style="opacity: 1;" transform="translate(1542.5,0)"><line y2="6" x2="0" style="shape-rendering: crispedges; fill: none; stroke: rgb(204, 204, 204);"></line><text dy=".71em" style="text-anchor: middle;" y="9" x="0">Switzerland</text></g><g class="tick" style="opacity: 1;" transform="translate(1596.5,0)"><line y2="6" x2="0" style="shape-rendering: crispedges; fill: none; stroke: rgb(204, 204, 204);"></line><text dy=".71em" style="text-anchor: middle;" y="9" x="0">Taiwan</text></g><g class="tick" style="opacity: 1;" transform="translate(1650.5,0)"><line y2="6" x2="0" style="shape-rendering: crispedges; fill: none; stroke: rgb(204, 204, 204);"></line><text dy=".71em" style="text-anchor: middle;" y="9" x="0">Thailand</text></g><g class="tick" style="opacity: 1;" transform="translate(1704.5,0)"><line y2="6" x2="0" style="shape-rendering: crispedges; fill: none; stroke: rgb(204, 204, 204);"></line><text dy=".71em" style="text-anchor: middle;" y="9" x="0">Turkey</text></g><g class="tick" style="opacity: 1;" transform="translate(1758.5,0)"><line y2="6" x2="0" style="shape-rendering: crispedges; fill: none; stroke: rgb(204, 204, 204);"></line><text dy=".71em" style="text-anchor: middle;" y="9" x="0">United Arab Emirates</text></g><g class="tick" style="opacity: 1;" transform="translate(1812.5,0)"><line y2="6" x2="0" style="shape-rendering: crispedges; fill: none; stroke: rgb(204, 204, 204);"></line><text dy=".71em" style="text-anchor: middle;" y="9" x="0">United Kingdom</text></g><g class="tick" style="opacity: 1;" transform="translate(1866.5,0)"><line y2="6" x2="0" style="shape-rendering: crispedges; fill: none; stroke: rgb(204, 204, 204);"></line><text dy=".71em" style="text-anchor: middle;" y="9" x="0">United States</text></g><g class="tick" style="opacity: 1;" transform="translate(1920.5,0)"><line y2="6" x2="0" style="shape-rendering: crispedges; fill: none; stroke: rgb(204, 204, 204);"></line><text dy=".71em" style="text-anchor: middle;" y="9" x="0">Venezuela</text></g><path class="domain" d="M0,6V0H1950V6" style="shape-rendering: crispedges; fill: none; stroke: rgb(204, 204, 204);"></path></g></svg>